<svg width="723" height="112" viewBox="0 0 723 112" fill="none" xmlns="http://www.w3.org/2000/svg">
<path d="M12.5039 41H4.14551L4.19824 34.8301H12.5039C14.5781 34.8301 16.3271 34.3643 17.751 33.4326C19.1748 32.4834 20.2471 31.1035 20.9678 29.293C21.7061 27.4824 22.0752 25.2939 22.0752 22.7275V20.8555C22.0752 18.8867 21.8643 17.1553 21.4424 15.6611C21.0381 14.167 20.4316 12.9102 19.623 11.8906C18.8145 10.8711 17.8213 10.1064 16.6436 9.59668C15.4658 9.06934 14.1123 8.80566 12.583 8.80566H3.9873V2.60938H12.583C15.1494 2.60938 17.4961 3.04883 19.623 3.92773C21.7676 4.78906 23.6221 6.02832 25.1865 7.64551C26.751 9.2627 27.9551 11.1963 28.7988 13.4463C29.6602 15.6787 30.0908 18.166 30.0908 20.9082V22.7275C30.0908 25.4521 29.6602 27.9395 28.7988 30.1895C27.9551 32.4395 26.751 34.373 25.1865 35.9902C23.6396 37.5898 21.7852 38.8291 19.623 39.708C17.4785 40.5693 15.1055 41 12.5039 41ZM8.62793 2.60938V41H0.717773V2.60938H8.62793ZM49.4951 41.5273C47.2803 41.5273 45.2939 41.1758 43.5361 40.4727C41.7783 39.752 40.2842 38.7588 39.0537 37.4932C37.8408 36.2275 36.9092 34.7598 36.2588 33.0898C35.6084 31.4023 35.2832 29.6094 35.2832 27.7109V26.6562C35.2832 24.4941 35.5908 22.5166 36.2061 20.7236C36.8213 18.9307 37.7002 17.375 38.8428 16.0566C40.0029 14.7383 41.4092 13.7275 43.0615 13.0244C44.7139 12.3037 46.5771 11.9434 48.6514 11.9434C50.6729 11.9434 52.4658 12.2773 54.0303 12.9453C55.5947 13.6133 56.9043 14.5625 57.959 15.793C59.0312 17.0234 59.8398 18.5 60.3848 20.2227C60.9297 21.9277 61.2021 23.8262 61.2021 25.918V29.082H38.5264V24.0195H53.7402V23.4395C53.7402 22.3848 53.5469 21.4443 53.1602 20.6182C52.791 19.7744 52.2285 19.1064 51.4727 18.6143C50.7168 18.1221 49.75 17.876 48.5723 17.876C47.5703 17.876 46.709 18.0957 45.9883 18.5352C45.2676 18.9746 44.6787 19.5898 44.2217 20.3809C43.7822 21.1719 43.4482 22.1035 43.2197 23.1758C43.0088 24.2305 42.9033 25.3906 42.9033 26.6562V27.7109C42.9033 28.8535 43.0615 29.9082 43.3779 30.875C43.7119 31.8418 44.1777 32.6768 44.7754 33.3799C45.3906 34.083 46.1289 34.6279 46.9902 35.0146C47.8691 35.4014 48.8623 35.5947 49.9697 35.5947C51.3408 35.5947 52.6152 35.3311 53.793 34.8037C54.9883 34.2588 56.0166 33.4414 56.8779 32.3516L60.5693 36.3594C59.9717 37.2207 59.1543 38.0469 58.1172 38.8379C57.0977 39.6289 55.8672 40.2793 54.4258 40.7891C52.9844 41.2812 51.3408 41.5273 49.4951 41.5273ZM81.9512 33.1162C81.9512 32.5713 81.793 32.0791 81.4766 31.6396C81.1602 31.2002 80.5713 30.7959 79.71 30.4268C78.8662 30.04 77.6445 29.6885 76.0449 29.3721C74.6035 29.0557 73.2588 28.6602 72.0107 28.1855C70.7803 27.6934 69.708 27.1045 68.7939 26.4189C67.8975 25.7334 67.1943 24.9248 66.6846 23.9932C66.1748 23.0439 65.9199 21.9629 65.9199 20.75C65.9199 19.5547 66.1748 18.4297 66.6846 17.375C67.2119 16.3203 67.959 15.3887 68.9258 14.5801C69.9102 13.7539 71.1055 13.1123 72.5117 12.6553C73.9355 12.1807 75.5352 11.9434 77.3105 11.9434C79.7891 11.9434 81.916 12.3389 83.6914 13.1299C85.4844 13.9209 86.8555 15.0107 87.8047 16.3994C88.7715 17.7705 89.2549 19.335 89.2549 21.0928H81.6611C81.6611 20.3545 81.5029 19.6953 81.1865 19.1152C80.8877 18.5176 80.4131 18.0518 79.7627 17.7178C79.1299 17.3662 78.3037 17.1904 77.2842 17.1904C76.4404 17.1904 75.7109 17.3398 75.0957 17.6387C74.4805 17.9199 74.0059 18.3066 73.6719 18.7988C73.3555 19.2734 73.1973 19.8008 73.1973 20.3809C73.1973 20.8203 73.2852 21.2158 73.4609 21.5674C73.6543 21.9014 73.9619 22.209 74.3838 22.4902C74.8057 22.7715 75.3506 23.0352 76.0186 23.2812C76.7041 23.5098 77.5479 23.7207 78.5498 23.9141C80.6064 24.3359 82.4434 24.8896 84.0605 25.5752C85.6777 26.2432 86.9609 27.1572 87.9102 28.3174C88.8594 29.46 89.334 30.9629 89.334 32.8262C89.334 34.0918 89.0527 35.252 88.4902 36.3066C87.9277 37.3613 87.1191 38.2842 86.0645 39.0752C85.0098 39.8486 83.7441 40.4551 82.2676 40.8945C80.8086 41.3164 79.165 41.5273 77.3369 41.5273C74.6826 41.5273 72.4326 41.0527 70.5869 40.1035C68.7588 39.1543 67.3701 37.9502 66.4209 36.4912C65.4893 35.0146 65.0234 33.5029 65.0234 31.9561H72.2217C72.2568 32.9932 72.5205 33.8281 73.0127 34.4609C73.5225 35.0938 74.1641 35.5508 74.9375 35.832C75.7285 36.1133 76.5811 36.2539 77.4951 36.2539C78.4795 36.2539 79.2969 36.1221 79.9473 35.8584C80.5977 35.5771 81.0898 35.208 81.4238 34.751C81.7754 34.2764 81.9512 33.7314 81.9512 33.1162ZM103.28 12.4707V41H95.6602V12.4707H103.28ZM95.1855 5.03516C95.1855 3.92773 95.5723 3.01367 96.3457 2.29297C97.1191 1.57227 98.1562 1.21191 99.457 1.21191C100.74 1.21191 101.769 1.57227 102.542 2.29297C103.333 3.01367 103.729 3.92773 103.729 5.03516C103.729 6.14258 103.333 7.05664 102.542 7.77734C101.769 8.49805 100.74 8.8584 99.457 8.8584C98.1562 8.8584 97.1191 8.49805 96.3457 7.77734C95.5723 7.05664 95.1855 6.14258 95.1855 5.03516ZM128.617 12.4707H135.499V40.0508C135.499 42.6523 134.919 44.8584 133.759 46.6689C132.616 48.4971 131.017 49.877 128.96 50.8086C126.903 51.7578 124.513 52.2324 121.788 52.2324C120.593 52.2324 119.327 52.0742 117.991 51.7578C116.673 51.4414 115.407 50.9492 114.194 50.2812C112.999 49.6133 111.997 48.7695 111.188 47.75L114.537 43.2676C115.416 44.2871 116.436 45.0781 117.596 45.6406C118.756 46.2207 120.039 46.5107 121.445 46.5107C122.816 46.5107 123.977 46.2559 124.926 45.7461C125.875 45.2539 126.604 44.5244 127.114 43.5576C127.624 42.6084 127.879 41.457 127.879 40.1035V19.0625L128.617 12.4707ZM109.422 27.0781V26.5244C109.422 24.3447 109.686 22.3672 110.213 20.5918C110.758 18.7988 111.522 17.2607 112.507 15.9775C113.509 14.6943 114.722 13.7012 116.146 12.998C117.569 12.2949 119.178 11.9434 120.971 11.9434C122.869 11.9434 124.46 12.2949 125.743 12.998C127.026 13.7012 128.081 14.7031 128.907 16.0039C129.733 17.2871 130.375 18.8076 130.832 20.5654C131.307 22.3057 131.676 24.2129 131.939 26.2871V27.5C131.676 29.4863 131.28 31.332 130.753 33.0371C130.226 34.7422 129.531 36.2363 128.67 37.5195C127.809 38.7852 126.736 39.7695 125.453 40.4727C124.188 41.1758 122.676 41.5273 120.918 41.5273C119.16 41.5273 117.569 41.167 116.146 40.4463C114.739 39.7256 113.535 38.7148 112.533 37.4141C111.531 36.1133 110.758 34.584 110.213 32.8262C109.686 31.0684 109.422 29.1523 109.422 27.0781ZM117.016 26.5244V27.0781C117.016 28.2559 117.13 29.3545 117.358 30.374C117.587 31.3936 117.938 32.2988 118.413 33.0898C118.905 33.8633 119.512 34.4697 120.232 34.9092C120.971 35.3311 121.841 35.542 122.843 35.542C124.231 35.542 125.365 35.252 126.244 34.6719C127.123 34.0742 127.782 33.2568 128.222 32.2197C128.661 31.1826 128.916 29.9873 128.986 28.6338V25.1797C128.951 24.0723 128.802 23.0791 128.538 22.2002C128.274 21.3037 127.905 20.5391 127.431 19.9062C126.956 19.2734 126.341 18.7812 125.585 18.4297C124.829 18.0781 123.933 17.9023 122.896 17.9023C121.894 17.9023 121.023 18.1309 120.285 18.5879C119.564 19.0273 118.958 19.6338 118.466 20.4072C117.991 21.1807 117.631 22.0947 117.385 23.1494C117.139 24.1865 117.016 25.3115 117.016 26.5244ZM149.841 18.5615V41H142.247V12.4707H149.366L149.841 18.5615ZM148.733 25.7334H146.677C146.677 23.624 146.949 21.7256 147.494 20.0381C148.039 18.333 148.804 16.8828 149.788 15.6875C150.772 14.4746 151.941 13.5518 153.295 12.9189C154.666 12.2686 156.195 11.9434 157.883 11.9434C159.219 11.9434 160.44 12.1367 161.548 12.5234C162.655 12.9102 163.604 13.5254 164.396 14.3691C165.204 15.2129 165.819 16.3291 166.241 17.7178C166.681 19.1064 166.9 20.8027 166.9 22.8066V41H159.254V22.7803C159.254 21.5146 159.078 20.5303 158.727 19.8271C158.375 19.124 157.856 18.6318 157.171 18.3506C156.503 18.0518 155.677 17.9023 154.692 17.9023C153.673 17.9023 152.785 18.1045 152.029 18.5088C151.291 18.9131 150.676 19.4756 150.184 20.1963C149.709 20.8994 149.349 21.7256 149.103 22.6748C148.856 23.624 148.733 24.6436 148.733 25.7334ZM202.097 12.4707V17.8496H185.485V12.4707H202.097ZM189.599 5.43066H197.192V32.4043C197.192 33.2305 197.298 33.8633 197.509 34.3027C197.737 34.7422 198.071 35.0498 198.511 35.2256C198.95 35.3838 199.504 35.4629 200.172 35.4629C200.646 35.4629 201.068 35.4453 201.438 35.4102C201.824 35.3574 202.149 35.3047 202.413 35.252L202.439 40.8418C201.789 41.0527 201.086 41.2197 200.33 41.3428C199.574 41.4658 198.739 41.5273 197.825 41.5273C196.155 41.5273 194.696 41.2549 193.448 40.71C192.218 40.1475 191.269 39.251 190.601 38.0205C189.933 36.79 189.599 35.1729 189.599 33.1689V5.43066ZM214.83 0.5V41H207.236V0.5H214.83ZM213.749 25.7334H211.666C211.684 23.7471 211.947 21.9189 212.457 20.249C212.967 18.5615 213.696 17.1025 214.646 15.8721C215.595 14.624 216.729 13.6572 218.047 12.9717C219.383 12.2861 220.859 11.9434 222.477 11.9434C223.883 11.9434 225.157 12.1455 226.3 12.5498C227.46 12.9365 228.453 13.5693 229.279 14.4482C230.123 15.3096 230.773 16.4434 231.23 17.8496C231.688 19.2559 231.916 20.9609 231.916 22.9648V41H224.27V22.9121C224.27 21.6465 224.085 20.6533 223.716 19.9326C223.364 19.1943 222.846 18.6758 222.16 18.377C221.492 18.0605 220.666 17.9023 219.682 17.9023C218.592 17.9023 217.66 18.1045 216.887 18.5088C216.131 18.9131 215.524 19.4756 215.067 20.1963C214.61 20.8994 214.276 21.7256 214.065 22.6748C213.854 23.624 213.749 24.6436 213.749 25.7334ZM254.089 34.5664V21.8574C254.089 20.9434 253.939 20.1611 253.641 19.5107C253.342 18.8428 252.876 18.3242 252.243 17.9551C251.628 17.5859 250.828 17.4014 249.844 17.4014C249 17.4014 248.271 17.5508 247.655 17.8496C247.04 18.1309 246.565 18.5439 246.231 19.0889C245.897 19.6162 245.73 20.2402 245.73 20.9609H238.137C238.137 19.748 238.418 18.5967 238.98 17.5068C239.543 16.417 240.36 15.459 241.433 14.6328C242.505 13.7891 243.779 13.1299 245.256 12.6553C246.75 12.1807 248.42 11.9434 250.266 11.9434C252.48 11.9434 254.449 12.3125 256.172 13.0508C257.895 13.7891 259.248 14.8965 260.232 16.373C261.234 17.8496 261.735 19.6953 261.735 21.9102V34.1182C261.735 35.6826 261.832 36.9658 262.025 37.9678C262.219 38.9521 262.5 39.8135 262.869 40.5518V41H255.196C254.827 40.2266 254.546 39.2598 254.353 38.0996C254.177 36.9219 254.089 35.7441 254.089 34.5664ZM255.091 23.624L255.144 27.9219H250.898C249.896 27.9219 249.026 28.0361 248.288 28.2646C247.55 28.4932 246.943 28.8184 246.469 29.2402C245.994 29.6445 245.643 30.1191 245.414 30.6641C245.203 31.209 245.098 31.8066 245.098 32.457C245.098 33.1074 245.247 33.6963 245.546 34.2236C245.845 34.7334 246.275 35.1377 246.838 35.4365C247.4 35.7178 248.06 35.8584 248.815 35.8584C249.958 35.8584 250.951 35.6299 251.795 35.1729C252.639 34.7158 253.289 34.1533 253.746 33.4854C254.221 32.8174 254.467 32.1846 254.484 31.5869L256.488 34.8037C256.207 35.5244 255.82 36.2715 255.328 37.0449C254.854 37.8184 254.247 38.5479 253.509 39.2334C252.771 39.9014 251.883 40.4551 250.846 40.8945C249.809 41.3164 248.578 41.5273 247.154 41.5273C245.344 41.5273 243.7 41.167 242.224 40.4463C240.765 39.708 239.604 38.6973 238.743 37.4141C237.899 36.1133 237.478 34.6367 237.478 32.9844C237.478 31.4902 237.759 30.1631 238.321 29.0029C238.884 27.8428 239.71 26.8672 240.8 26.0762C241.907 25.2676 243.287 24.6611 244.939 24.2568C246.592 23.835 248.508 23.624 250.688 23.624H255.091ZM282.563 12.4707V17.8496H265.952V12.4707H282.563ZM270.065 5.43066H277.659V32.4043C277.659 33.2305 277.765 33.8633 277.976 34.3027C278.204 34.7422 278.538 35.0498 278.978 35.2256C279.417 35.3838 279.971 35.4629 280.639 35.4629C281.113 35.4629 281.535 35.4453 281.904 35.4102C282.291 35.3574 282.616 35.3047 282.88 35.252L282.906 40.8418C282.256 41.0527 281.553 41.2197 280.797 41.3428C280.041 41.4658 279.206 41.5273 278.292 41.5273C276.622 41.5273 275.163 41.2549 273.915 40.71C272.685 40.1475 271.735 39.251 271.067 38.0205C270.399 36.79 270.065 35.1729 270.065 33.1689V5.43066ZM317.76 33.1162C317.76 32.5713 317.602 32.0791 317.285 31.6396C316.969 31.2002 316.38 30.7959 315.519 30.4268C314.675 30.04 313.453 29.6885 311.854 29.3721C310.412 29.0557 309.067 28.6602 307.819 28.1855C306.589 27.6934 305.517 27.1045 304.603 26.4189C303.706 25.7334 303.003 24.9248 302.493 23.9932C301.983 23.0439 301.729 21.9629 301.729 20.75C301.729 19.5547 301.983 18.4297 302.493 17.375C303.021 16.3203 303.768 15.3887 304.734 14.5801C305.719 13.7539 306.914 13.1123 308.32 12.6553C309.744 12.1807 311.344 11.9434 313.119 11.9434C315.598 11.9434 317.725 12.3389 319.5 13.1299C321.293 13.9209 322.664 15.0107 323.613 16.3994C324.58 17.7705 325.063 19.335 325.063 21.0928H317.47C317.47 20.3545 317.312 19.6953 316.995 19.1152C316.696 18.5176 316.222 18.0518 315.571 17.7178C314.938 17.3662 314.112 17.1904 313.093 17.1904C312.249 17.1904 311.52 17.3398 310.904 17.6387C310.289 17.9199 309.814 18.3066 309.48 18.7988C309.164 19.2734 309.006 19.8008 309.006 20.3809C309.006 20.8203 309.094 21.2158 309.27 21.5674C309.463 21.9014 309.771 22.209 310.192 22.4902C310.614 22.7715 311.159 23.0352 311.827 23.2812C312.513 23.5098 313.356 23.7207 314.358 23.9141C316.415 24.3359 318.252 24.8896 319.869 25.5752C321.486 26.2432 322.77 27.1572 323.719 28.3174C324.668 29.46 325.143 30.9629 325.143 32.8262C325.143 34.0918 324.861 35.252 324.299 36.3066C323.736 37.3613 322.928 38.2842 321.873 39.0752C320.818 39.8486 319.553 40.4551 318.076 40.8945C316.617 41.3164 314.974 41.5273 313.146 41.5273C310.491 41.5273 308.241 41.0527 306.396 40.1035C304.567 39.1543 303.179 37.9502 302.229 36.4912C301.298 35.0146 300.832 33.5029 300.832 31.9561H308.03C308.065 32.9932 308.329 33.8281 308.821 34.4609C309.331 35.0938 309.973 35.5508 310.746 35.832C311.537 36.1133 312.39 36.2539 313.304 36.2539C314.288 36.2539 315.105 36.1221 315.756 35.8584C316.406 35.5771 316.898 35.208 317.232 34.751C317.584 34.2764 317.76 33.7314 317.76 33.1162ZM329.86 27.0254V26.4717C329.86 24.3799 330.159 22.4551 330.757 20.6973C331.354 18.9219 332.225 17.3838 333.367 16.083C334.51 14.7822 335.916 13.7715 337.586 13.0508C339.256 12.3125 341.172 11.9434 343.334 11.9434C345.496 11.9434 347.421 12.3125 349.108 13.0508C350.796 13.7715 352.211 14.7822 353.354 16.083C354.514 17.3838 355.393 18.9219 355.99 20.6973C356.588 22.4551 356.887 24.3799 356.887 26.4717V27.0254C356.887 29.0996 356.588 31.0244 355.99 32.7998C355.393 34.5576 354.514 36.0957 353.354 37.4141C352.211 38.7148 350.805 39.7256 349.135 40.4463C347.465 41.167 345.549 41.5273 343.387 41.5273C341.225 41.5273 339.3 41.167 337.612 40.4463C335.942 39.7256 334.527 38.7148 333.367 37.4141C332.225 36.0957 331.354 34.5576 330.757 32.7998C330.159 31.0244 329.86 29.0996 329.86 27.0254ZM337.454 26.4717V27.0254C337.454 28.2207 337.56 29.3369 337.771 30.374C337.981 31.4111 338.315 32.3252 338.772 33.1162C339.247 33.8896 339.862 34.4961 340.618 34.9355C341.374 35.375 342.297 35.5947 343.387 35.5947C344.441 35.5947 345.347 35.375 346.103 34.9355C346.858 34.4961 347.465 33.8896 347.922 33.1162C348.379 32.3252 348.713 31.4111 348.924 30.374C349.152 29.3369 349.267 28.2207 349.267 27.0254V26.4717C349.267 25.3115 349.152 24.2217 348.924 23.2021C348.713 22.165 348.37 21.251 347.896 20.46C347.438 19.6514 346.832 19.0186 346.076 18.5615C345.32 18.1045 344.406 17.876 343.334 17.876C342.262 17.876 341.348 18.1045 340.592 18.5615C339.854 19.0186 339.247 19.6514 338.772 20.46C338.315 21.251 337.981 22.165 337.771 23.2021C337.56 24.2217 337.454 25.3115 337.454 26.4717ZM370.569 0.5V41H362.949V0.5H370.569ZM387.548 35.4629L393.876 12.4707H401.812L392.188 41H387.39L387.548 35.4629ZM383.197 12.4707L389.552 35.4893L389.684 41H384.858L375.234 12.4707H383.197ZM418.976 41.5273C416.761 41.5273 414.774 41.1758 413.017 40.4727C411.259 39.752 409.765 38.7588 408.534 37.4932C407.321 36.2275 406.39 34.7598 405.739 33.0898C405.089 31.4023 404.764 29.6094 404.764 27.7109V26.6562C404.764 24.4941 405.071 22.5166 405.687 20.7236C406.302 18.9307 407.181 17.375 408.323 16.0566C409.483 14.7383 410.89 13.7275 412.542 13.0244C414.194 12.3037 416.058 11.9434 418.132 11.9434C420.153 11.9434 421.946 12.2773 423.511 12.9453C425.075 13.6133 426.385 14.5625 427.439 15.793C428.512 17.0234 429.32 18.5 429.865 20.2227C430.41 21.9277 430.683 23.8262 430.683 25.918V29.082H408.007V24.0195H423.221V23.4395C423.221 22.3848 423.027 21.4443 422.641 20.6182C422.271 19.7744 421.709 19.1064 420.953 18.6143C420.197 18.1221 419.23 17.876 418.053 17.876C417.051 17.876 416.189 18.0957 415.469 18.5352C414.748 18.9746 414.159 19.5898 413.702 20.3809C413.263 21.1719 412.929 22.1035 412.7 23.1758C412.489 24.2305 412.384 25.3906 412.384 26.6562V27.7109C412.384 28.8535 412.542 29.9082 412.858 30.875C413.192 31.8418 413.658 32.6768 414.256 33.3799C414.871 34.083 415.609 34.6279 416.471 35.0146C417.35 35.4014 418.343 35.5947 419.45 35.5947C420.821 35.5947 422.096 35.3311 423.273 34.8037C424.469 34.2588 425.497 33.4414 426.358 32.3516L430.05 36.3594C429.452 37.2207 428.635 38.0469 427.598 38.8379C426.578 39.6289 425.348 40.2793 423.906 40.7891C422.465 41.2812 420.821 41.5273 418.976 41.5273ZM451.432 33.1162C451.432 32.5713 451.273 32.0791 450.957 31.6396C450.641 31.2002 450.052 30.7959 449.19 30.4268C448.347 30.04 447.125 29.6885 445.525 29.3721C444.084 29.0557 442.739 28.6602 441.491 28.1855C440.261 27.6934 439.188 27.1045 438.274 26.4189C437.378 25.7334 436.675 24.9248 436.165 23.9932C435.655 23.0439 435.4 21.9629 435.4 20.75C435.4 19.5547 435.655 18.4297 436.165 17.375C436.692 16.3203 437.439 15.3887 438.406 14.5801C439.391 13.7539 440.586 13.1123 441.992 12.6553C443.416 12.1807 445.016 11.9434 446.791 11.9434C449.27 11.9434 451.396 12.3389 453.172 13.1299C454.965 13.9209 456.336 15.0107 457.285 16.3994C458.252 17.7705 458.735 19.335 458.735 21.0928H451.142C451.142 20.3545 450.983 19.6953 450.667 19.1152C450.368 18.5176 449.894 18.0518 449.243 17.7178C448.61 17.3662 447.784 17.1904 446.765 17.1904C445.921 17.1904 445.191 17.3398 444.576 17.6387C443.961 17.9199 443.486 18.3066 443.152 18.7988C442.836 19.2734 442.678 19.8008 442.678 20.3809C442.678 20.8203 442.766 21.2158 442.941 21.5674C443.135 21.9014 443.442 22.209 443.864 22.4902C444.286 22.7715 444.831 23.0352 445.499 23.2812C446.185 23.5098 447.028 23.7207 448.03 23.9141C450.087 24.3359 451.924 24.8896 453.541 25.5752C455.158 26.2432 456.441 27.1572 457.391 28.3174C458.34 29.46 458.814 30.9629 458.814 32.8262C458.814 34.0918 458.533 35.252 457.971 36.3066C457.408 37.3613 456.6 38.2842 455.545 39.0752C454.49 39.8486 453.225 40.4551 451.748 40.8945C450.289 41.3164 448.646 41.5273 446.817 41.5273C444.163 41.5273 441.913 41.0527 440.067 40.1035C438.239 39.1543 436.851 37.9502 435.901 36.4912C434.97 35.0146 434.504 33.5029 434.504 31.9561H441.702C441.737 32.9932 442.001 33.8281 442.493 34.4609C443.003 35.0938 443.645 35.5508 444.418 35.832C445.209 36.1133 446.062 36.2539 446.976 36.2539C447.96 36.2539 448.777 36.1221 449.428 35.8584C450.078 35.5771 450.57 35.208 450.904 34.751C451.256 34.2764 451.432 33.7314 451.432 33.1162ZM486.786 17.9551V51.9688H479.192V12.4707H486.232L486.786 17.9551ZM504.848 26.4189V26.9727C504.848 29.0469 504.602 30.9717 504.109 32.7471C503.635 34.5225 502.932 36.0693 502 37.3877C501.068 38.6885 499.908 39.708 498.52 40.4463C497.148 41.167 495.566 41.5273 493.773 41.5273C492.033 41.5273 490.521 41.1758 489.238 40.4727C487.955 39.7695 486.874 38.7852 485.995 37.5195C485.134 36.2363 484.439 34.751 483.912 33.0635C483.385 31.376 482.98 29.5654 482.699 27.6318V26.1816C482.98 24.1074 483.385 22.209 483.912 20.4863C484.439 18.7461 485.134 17.2432 485.995 15.9775C486.874 14.6943 487.946 13.7012 489.212 12.998C490.495 12.2949 491.998 11.9434 493.721 11.9434C495.531 11.9434 497.122 12.2861 498.493 12.9717C499.882 13.6572 501.042 14.6416 501.974 15.9248C502.923 17.208 503.635 18.7373 504.109 20.5127C504.602 22.2881 504.848 24.2568 504.848 26.4189ZM497.228 26.9727V26.4189C497.228 25.2061 497.122 24.0898 496.911 23.0703C496.718 22.0332 496.401 21.1279 495.962 20.3545C495.54 19.5811 494.978 18.9834 494.274 18.5615C493.589 18.1221 492.754 17.9023 491.77 17.9023C490.732 17.9023 489.845 18.0693 489.106 18.4033C488.386 18.7373 487.797 19.2207 487.34 19.8535C486.883 20.4863 486.54 21.2422 486.312 22.1211C486.083 23 485.942 23.9932 485.89 25.1006V28.7656C485.978 30.0664 486.224 31.2354 486.628 32.2725C487.032 33.292 487.656 34.1006 488.5 34.6982C489.344 35.2959 490.451 35.5947 491.822 35.5947C492.824 35.5947 493.668 35.375 494.354 34.9355C495.039 34.4785 495.593 33.8545 496.015 33.0635C496.454 32.2725 496.762 31.3584 496.938 30.3213C497.131 29.2842 497.228 28.168 497.228 26.9727ZM518.161 18.6934V41H510.567V12.4707H517.713L518.161 18.6934ZM526.757 12.2861L526.625 19.3262C526.256 19.2734 525.808 19.2295 525.28 19.1943C524.771 19.1416 524.305 19.1152 523.883 19.1152C522.811 19.1152 521.879 19.2559 521.088 19.5371C520.314 19.8008 519.664 20.1963 519.137 20.7236C518.627 21.251 518.24 21.8926 517.977 22.6484C517.73 23.4043 517.59 24.2656 517.555 25.2324L516.025 24.7578C516.025 22.9121 516.21 21.2158 516.579 19.6689C516.948 18.1045 517.484 16.7422 518.188 15.582C518.908 14.4219 519.787 13.5254 520.824 12.8926C521.861 12.2598 523.048 11.9434 524.384 11.9434C524.806 11.9434 525.236 11.9785 525.676 12.0488C526.115 12.1016 526.476 12.1807 526.757 12.2861ZM529.339 27.0254V26.4717C529.339 24.3799 529.638 22.4551 530.235 20.6973C530.833 18.9219 531.703 17.3838 532.846 16.083C533.988 14.7822 535.395 13.7715 537.064 13.0508C538.734 12.3125 540.65 11.9434 542.812 11.9434C544.975 11.9434 546.899 12.3125 548.587 13.0508C550.274 13.7715 551.689 14.7822 552.832 16.083C553.992 17.3838 554.871 18.9219 555.469 20.6973C556.066 22.4551 556.365 24.3799 556.365 26.4717V27.0254C556.365 29.0996 556.066 31.0244 555.469 32.7998C554.871 34.5576 553.992 36.0957 552.832 37.4141C551.689 38.7148 550.283 39.7256 548.613 40.4463C546.943 41.167 545.027 41.5273 542.865 41.5273C540.703 41.5273 538.778 41.167 537.091 40.4463C535.421 39.7256 534.006 38.7148 532.846 37.4141C531.703 36.0957 530.833 34.5576 530.235 32.7998C529.638 31.0244 529.339 29.0996 529.339 27.0254ZM536.933 26.4717V27.0254C536.933 28.2207 537.038 29.3369 537.249 30.374C537.46 31.4111 537.794 32.3252 538.251 33.1162C538.726 33.8896 539.341 34.4961 540.097 34.9355C540.853 35.375 541.775 35.5947 542.865 35.5947C543.92 35.5947 544.825 35.375 545.581 34.9355C546.337 34.4961 546.943 33.8896 547.4 33.1162C547.857 32.3252 548.191 31.4111 548.402 30.374C548.631 29.3369 548.745 28.2207 548.745 27.0254V26.4717C548.745 25.3115 548.631 24.2217 548.402 23.2021C548.191 22.165 547.849 21.251 547.374 20.46C546.917 19.6514 546.311 19.0186 545.555 18.5615C544.799 18.1045 543.885 17.876 542.812 17.876C541.74 17.876 540.826 18.1045 540.07 18.5615C539.332 19.0186 538.726 19.6514 538.251 20.46C537.794 21.251 537.46 22.165 537.249 23.2021C537.038 24.2217 536.933 25.3115 536.933 26.4717ZM562.032 0.5H569.626V34.4609L568.861 41H562.032V0.5ZM587.688 26.4453V26.999C587.688 29.126 587.459 31.0771 587.002 32.8525C586.562 34.6279 585.877 36.166 584.945 37.4668C584.014 38.75 582.854 39.752 581.465 40.4727C580.094 41.1758 578.477 41.5273 576.613 41.5273C574.873 41.5273 573.361 41.1758 572.078 40.4727C570.812 39.7695 569.749 38.7764 568.888 37.4932C568.026 36.21 567.332 34.707 566.805 32.9844C566.277 31.2617 565.882 29.3809 565.618 27.3418V26.1289C565.882 24.0898 566.277 22.209 566.805 20.4863C567.332 18.7637 568.026 17.2607 568.888 15.9775C569.749 14.6943 570.812 13.7012 572.078 12.998C573.344 12.2949 574.838 11.9434 576.561 11.9434C578.441 11.9434 580.076 12.3037 581.465 13.0244C582.871 13.7275 584.031 14.7295 584.945 16.0303C585.877 17.3135 586.562 18.8428 587.002 20.6182C587.459 22.376 587.688 24.3184 587.688 26.4453ZM580.094 26.999V26.4453C580.094 25.2852 580.006 24.1953 579.83 23.1758C579.672 22.1387 579.391 21.2334 578.986 20.46C578.582 19.6689 578.028 19.0449 577.325 18.5879C576.64 18.1309 575.752 17.9023 574.662 17.9023C573.625 17.9023 572.746 18.0781 572.025 18.4297C571.305 18.7812 570.707 19.2734 570.232 19.9062C569.775 20.5391 569.433 21.2949 569.204 22.1738C568.976 23.0352 568.835 23.9844 568.782 25.0215V28.4756C568.835 29.8643 569.063 31.0947 569.468 32.167C569.89 33.2217 570.522 34.0566 571.366 34.6719C572.228 35.2695 573.344 35.5684 574.715 35.5684C575.787 35.5684 576.675 35.3574 577.378 34.9355C578.081 34.5137 578.626 33.916 579.013 33.1426C579.417 32.3691 579.698 31.4639 579.856 30.4268C580.015 29.3721 580.094 28.2295 580.094 26.999ZM601.423 0.5V41H593.803V0.5H601.423ZM621.829 41.5273C619.614 41.5273 617.628 41.1758 615.87 40.4727C614.112 39.752 612.618 38.7588 611.388 37.4932C610.175 36.2275 609.243 34.7598 608.593 33.0898C607.942 31.4023 607.617 29.6094 607.617 27.7109V26.6562C607.617 24.4941 607.925 22.5166 608.54 20.7236C609.155 18.9307 610.034 17.375 611.177 16.0566C612.337 14.7383 613.743 13.7275 615.396 13.0244C617.048 12.3037 618.911 11.9434 620.985 11.9434C623.007 11.9434 624.8 12.2773 626.364 12.9453C627.929 13.6133 629.238 14.5625 630.293 15.793C631.365 17.0234 632.174 18.5 632.719 20.2227C633.264 21.9277 633.536 23.8262 633.536 25.918V29.082H610.86V24.0195H626.074V23.4395C626.074 22.3848 625.881 21.4443 625.494 20.6182C625.125 19.7744 624.562 19.1064 623.807 18.6143C623.051 18.1221 622.084 17.876 620.906 17.876C619.904 17.876 619.043 18.0957 618.322 18.5352C617.602 18.9746 617.013 19.5898 616.556 20.3809C616.116 21.1719 615.782 22.1035 615.554 23.1758C615.343 24.2305 615.237 25.3906 615.237 26.6562V27.7109C615.237 28.8535 615.396 29.9082 615.712 30.875C616.046 31.8418 616.512 32.6768 617.109 33.3799C617.725 34.083 618.463 34.6279 619.324 35.0146C620.203 35.4014 621.196 35.5947 622.304 35.5947C623.675 35.5947 624.949 35.3311 626.127 34.8037C627.322 34.2588 628.351 33.4414 629.212 32.3516L632.903 36.3594C632.306 37.2207 631.488 38.0469 630.451 38.8379C629.432 39.6289 628.201 40.2793 626.76 40.7891C625.318 41.2812 623.675 41.5273 621.829 41.5273ZM646.454 18.377V41H638.834V12.4707H645.979L646.454 18.377ZM645.399 25.7334H643.29C643.29 23.7471 643.527 21.9189 644.002 20.249C644.494 18.5615 645.206 17.1025 646.138 15.8721C647.087 14.624 648.256 13.6572 649.645 12.9717C651.033 12.2861 652.642 11.9434 654.47 11.9434C655.735 11.9434 656.896 12.1367 657.95 12.5234C659.005 12.8926 659.91 13.4814 660.666 14.29C661.439 15.0811 662.037 16.1182 662.459 17.4014C662.881 18.667 663.092 20.1875 663.092 21.9629V41H655.498V22.8066C655.498 21.5059 655.322 20.5039 654.971 19.8008C654.619 19.0977 654.118 18.6055 653.468 18.3242C652.835 18.043 652.07 17.9023 651.174 17.9023C650.189 17.9023 649.328 18.1045 648.59 18.5088C647.869 18.9131 647.271 19.4756 646.797 20.1963C646.322 20.8994 645.971 21.7256 645.742 22.6748C645.514 23.624 645.399 24.6436 645.399 25.7334ZM662.38 24.8633L659.664 25.2061C659.664 23.3428 659.893 21.6113 660.35 20.0117C660.824 18.4121 661.519 17.0059 662.433 15.793C663.364 14.5801 664.516 13.6396 665.887 12.9717C667.258 12.2861 668.84 11.9434 670.633 11.9434C672.004 11.9434 673.252 12.1455 674.377 12.5498C675.502 12.9365 676.46 13.5605 677.251 14.4219C678.06 15.2656 678.675 16.373 679.097 17.7441C679.536 19.1152 679.756 20.7939 679.756 22.7803V41H672.136V22.7803C672.136 21.4619 671.96 20.46 671.608 19.7744C671.274 19.0713 670.782 18.5879 670.132 18.3242C669.499 18.043 668.743 17.9023 667.864 17.9023C666.95 17.9023 666.15 18.0869 665.465 18.4561C664.779 18.8076 664.208 19.2998 663.751 19.9326C663.294 20.5654 662.951 21.3037 662.723 22.1475C662.494 22.9736 662.38 23.8789 662.38 24.8633ZM702.061 33.1162C702.061 32.5713 701.902 32.0791 701.586 31.6396C701.27 31.2002 700.681 30.7959 699.819 30.4268C698.976 30.04 697.754 29.6885 696.154 29.3721C694.713 29.0557 693.368 28.6602 692.12 28.1855C690.89 27.6934 689.817 27.1045 688.903 26.4189C688.007 25.7334 687.304 24.9248 686.794 23.9932C686.284 23.0439 686.029 21.9629 686.029 20.75C686.029 19.5547 686.284 18.4297 686.794 17.375C687.321 16.3203 688.068 15.3887 689.035 14.5801C690.02 13.7539 691.215 13.1123 692.621 12.6553C694.045 12.1807 695.645 11.9434 697.42 11.9434C699.898 11.9434 702.025 12.3389 703.801 13.1299C705.594 13.9209 706.965 15.0107 707.914 16.3994C708.881 17.7705 709.364 19.335 709.364 21.0928H701.771C701.771 20.3545 701.612 19.6953 701.296 19.1152C700.997 18.5176 700.522 18.0518 699.872 17.7178C699.239 17.3662 698.413 17.1904 697.394 17.1904C696.55 17.1904 695.82 17.3398 695.205 17.6387C694.59 17.9199 694.115 18.3066 693.781 18.7988C693.465 19.2734 693.307 19.8008 693.307 20.3809C693.307 20.8203 693.395 21.2158 693.57 21.5674C693.764 21.9014 694.071 22.209 694.493 22.4902C694.915 22.7715 695.46 23.0352 696.128 23.2812C696.813 23.5098 697.657 23.7207 698.659 23.9141C700.716 24.3359 702.553 24.8896 704.17 25.5752C705.787 26.2432 707.07 27.1572 708.02 28.3174C708.969 29.46 709.443 30.9629 709.443 32.8262C709.443 34.0918 709.162 35.252 708.6 36.3066C708.037 37.3613 707.229 38.2842 706.174 39.0752C705.119 39.8486 703.854 40.4551 702.377 40.8945C700.918 41.3164 699.274 41.5273 697.446 41.5273C694.792 41.5273 692.542 41.0527 690.696 40.1035C688.868 39.1543 687.479 37.9502 686.53 36.4912C685.599 35.0146 685.133 33.5029 685.133 31.9561H692.331C692.366 32.9932 692.63 33.8281 693.122 34.4609C693.632 35.0938 694.273 35.5508 695.047 35.832C695.838 36.1133 696.69 36.2539 697.604 36.2539C698.589 36.2539 699.406 36.1221 700.057 35.8584C700.707 35.5771 701.199 35.208 701.533 34.751C701.885 34.2764 702.061 33.7314 702.061 33.1162ZM722.572 34.5928L722.546 39.6816C722.546 41.6328 722.054 43.6016 721.069 45.5879C720.103 47.5742 718.872 49.2002 717.378 50.4658L713.423 48.4355C713.862 47.627 714.293 46.8184 714.715 46.0098C715.137 45.2012 715.488 44.3135 715.77 43.3467C716.051 42.3799 716.191 41.2812 716.191 40.0508V34.5928H722.572ZM87.749 87.0254V86.4717C87.749 84.3799 88.0479 82.4551 88.6455 80.6973C89.2432 78.9219 90.1133 77.3838 91.2559 76.083C92.3984 74.7822 93.8047 73.7715 95.4746 73.0508C97.1445 72.3125 99.0605 71.9434 101.223 71.9434C103.385 71.9434 105.31 72.3125 106.997 73.0508C108.685 73.7715 110.1 74.7822 111.242 76.083C112.402 77.3838 113.281 78.9219 113.879 80.6973C114.477 82.4551 114.775 84.3799 114.775 86.4717V87.0254C114.775 89.0996 114.477 91.0244 113.879 92.7998C113.281 94.5576 112.402 96.0957 111.242 97.4141C110.1 98.7148 108.693 99.7256 107.023 100.446C105.354 101.167 103.438 101.527 101.275 101.527C99.1133 101.527 97.1885 101.167 95.501 100.446C93.8311 99.7256 92.416 98.7148 91.2559 97.4141C90.1133 96.0957 89.2432 94.5576 88.6455 92.7998C88.0479 91.0244 87.749 89.0996 87.749 87.0254ZM95.3428 86.4717V87.0254C95.3428 88.2207 95.4482 89.3369 95.6592 90.374C95.8701 91.4111 96.2041 92.3252 96.6611 93.1162C97.1357 93.8896 97.751 94.4961 98.5068 94.9355C99.2627 95.375 100.186 95.5947 101.275 95.5947C102.33 95.5947 103.235 95.375 103.991 94.9355C104.747 94.4961 105.354 93.8896 105.811 93.1162C106.268 92.3252 106.602 91.4111 106.812 90.374C107.041 89.3369 107.155 88.2207 107.155 87.0254V86.4717C107.155 85.3115 107.041 84.2217 106.812 83.2021C106.602 82.165 106.259 81.251 105.784 80.46C105.327 79.6514 104.721 79.0186 103.965 78.5615C103.209 78.1045 102.295 77.876 101.223 77.876C100.15 77.876 99.2363 78.1045 98.4805 78.5615C97.7422 79.0186 97.1357 79.6514 96.6611 80.46C96.2041 81.251 95.8701 82.165 95.6592 83.2021C95.4482 84.2217 95.3428 85.3115 95.3428 86.4717ZM127.878 78.5615V101H120.284V72.4707H127.403L127.878 78.5615ZM126.771 85.7334H124.714C124.714 83.624 124.986 81.7256 125.531 80.0381C126.076 78.333 126.841 76.8828 127.825 75.6875C128.81 74.4746 129.979 73.5518 131.332 72.9189C132.703 72.2686 134.232 71.9434 135.92 71.9434C137.256 71.9434 138.478 72.1367 139.585 72.5234C140.692 72.9102 141.642 73.5254 142.433 74.3691C143.241 75.2129 143.856 76.3291 144.278 77.7178C144.718 79.1064 144.938 80.8027 144.938 82.8066V101H137.291V82.7803C137.291 81.5146 137.115 80.5303 136.764 79.8271C136.412 79.124 135.894 78.6318 135.208 78.3506C134.54 78.0518 133.714 77.9023 132.729 77.9023C131.71 77.9023 130.822 78.1045 130.066 78.5088C129.328 78.9131 128.713 79.4756 128.221 80.1963C127.746 80.8994 127.386 81.7256 127.14 82.6748C126.894 83.624 126.771 84.6436 126.771 85.7334ZM164.843 101.527C162.628 101.527 160.642 101.176 158.884 100.473C157.126 99.752 155.632 98.7588 154.401 97.4932C153.188 96.2275 152.257 94.7598 151.606 93.0898C150.956 91.4023 150.631 89.6094 150.631 87.7109V86.6562C150.631 84.4941 150.938 82.5166 151.554 80.7236C152.169 78.9307 153.048 77.375 154.19 76.0566C155.351 74.7383 156.757 73.7275 158.409 73.0244C160.062 72.3037 161.925 71.9434 163.999 71.9434C166.021 71.9434 167.813 72.2773 169.378 72.9453C170.942 73.6133 172.252 74.5625 173.307 75.793C174.379 77.0234 175.188 78.5 175.732 80.2227C176.277 81.9277 176.55 83.8262 176.55 85.918V89.082H153.874V84.0195H169.088V83.4395C169.088 82.3848 168.895 81.4443 168.508 80.6182C168.139 79.7744 167.576 79.1064 166.82 78.6143C166.064 78.1221 165.098 77.876 163.92 77.876C162.918 77.876 162.057 78.0957 161.336 78.5352C160.615 78.9746 160.026 79.5898 159.569 80.3809C159.13 81.1719 158.796 82.1035 158.567 83.1758C158.356 84.2305 158.251 85.3906 158.251 86.6562V87.7109C158.251 88.8535 158.409 89.9082 158.726 90.875C159.06 91.8418 159.525 92.6768 160.123 93.3799C160.738 94.083 161.477 94.6279 162.338 95.0146C163.217 95.4014 164.21 95.5947 165.317 95.5947C166.688 95.5947 167.963 95.3311 169.141 94.8037C170.336 94.2588 171.364 93.4414 172.226 92.3516L175.917 96.3594C175.319 97.2207 174.502 98.0469 173.465 98.8379C172.445 99.6289 171.215 100.279 169.773 100.789C168.332 101.281 166.688 101.527 164.843 101.527ZM203.915 77.9551V111.969H196.321V72.4707H203.361L203.915 77.9551ZM221.977 86.4189V86.9727C221.977 89.0469 221.73 90.9717 221.238 92.7471C220.764 94.5225 220.061 96.0693 219.129 97.3877C218.197 98.6885 217.037 99.708 215.648 100.446C214.277 101.167 212.695 101.527 210.902 101.527C209.162 101.527 207.65 101.176 206.367 100.473C205.084 99.7695 204.003 98.7852 203.124 97.5195C202.263 96.2363 201.568 94.751 201.041 93.0635C200.514 91.376 200.109 89.5654 199.828 87.6318V86.1816C200.109 84.1074 200.514 82.209 201.041 80.4863C201.568 78.7461 202.263 77.2432 203.124 75.9775C204.003 74.6943 205.075 73.7012 206.341 72.998C207.624 72.2949 209.127 71.9434 210.85 71.9434C212.66 71.9434 214.251 72.2861 215.622 72.9717C217.011 73.6572 218.171 74.6416 219.103 75.9248C220.052 77.208 220.764 78.7373 221.238 80.5127C221.73 82.2881 221.977 84.2568 221.977 86.4189ZM214.356 86.9727V86.4189C214.356 85.2061 214.251 84.0898 214.04 83.0703C213.847 82.0332 213.53 81.1279 213.091 80.3545C212.669 79.5811 212.106 78.9834 211.403 78.5615C210.718 78.1221 209.883 77.9023 208.898 77.9023C207.861 77.9023 206.974 78.0693 206.235 78.4033C205.515 78.7373 204.926 79.2207 204.469 79.8535C204.012 80.4863 203.669 81.2422 203.44 82.1211C203.212 83 203.071 83.9932 203.019 85.1006V88.7656C203.106 90.0664 203.353 91.2354 203.757 92.2725C204.161 93.292 204.785 94.1006 205.629 94.6982C206.473 95.2959 207.58 95.5947 208.951 95.5947C209.953 95.5947 210.797 95.375 211.482 94.9355C212.168 94.4785 212.722 93.8545 213.144 93.0635C213.583 92.2725 213.891 91.3584 214.066 90.3213C214.26 89.2842 214.356 88.168 214.356 86.9727ZM235.29 78.6934V101H227.696V72.4707H234.842L235.29 78.6934ZM243.886 72.2861L243.754 79.3262C243.385 79.2734 242.937 79.2295 242.409 79.1943C241.899 79.1416 241.434 79.1152 241.012 79.1152C239.939 79.1152 239.008 79.2559 238.217 79.5371C237.443 79.8008 236.793 80.1963 236.266 80.7236C235.756 81.251 235.369 81.8926 235.105 82.6484C234.859 83.4043 234.719 84.2656 234.684 85.2324L233.154 84.7578C233.154 82.9121 233.339 81.2158 233.708 79.6689C234.077 78.1045 234.613 76.7422 235.316 75.582C236.037 74.4219 236.916 73.5254 237.953 72.8926C238.99 72.2598 240.177 71.9434 241.513 71.9434C241.935 71.9434 242.365 71.9785 242.805 72.0488C243.244 72.1016 243.604 72.1807 243.886 72.2861ZM246.468 87.0254V86.4717C246.468 84.3799 246.767 82.4551 247.364 80.6973C247.962 78.9219 248.832 77.3838 249.975 76.083C251.117 74.7822 252.523 73.7715 254.193 73.0508C255.863 72.3125 257.779 71.9434 259.941 71.9434C262.104 71.9434 264.028 72.3125 265.716 73.0508C267.403 73.7715 268.818 74.7822 269.961 76.083C271.121 77.3838 272 78.9219 272.598 80.6973C273.195 82.4551 273.494 84.3799 273.494 86.4717V87.0254C273.494 89.0996 273.195 91.0244 272.598 92.7998C272 94.5576 271.121 96.0957 269.961 97.4141C268.818 98.7148 267.412 99.7256 265.742 100.446C264.072 101.167 262.156 101.527 259.994 101.527C257.832 101.527 255.907 101.167 254.22 100.446C252.55 99.7256 251.135 98.7148 249.975 97.4141C248.832 96.0957 247.962 94.5576 247.364 92.7998C246.767 91.0244 246.468 89.0996 246.468 87.0254ZM254.062 86.4717V87.0254C254.062 88.2207 254.167 89.3369 254.378 90.374C254.589 91.4111 254.923 92.3252 255.38 93.1162C255.854 93.8896 256.47 94.4961 257.226 94.9355C257.981 95.375 258.904 95.5947 259.994 95.5947C261.049 95.5947 261.954 95.375 262.71 94.9355C263.466 94.4961 264.072 93.8896 264.529 93.1162C264.986 92.3252 265.32 91.4111 265.531 90.374C265.76 89.3369 265.874 88.2207 265.874 87.0254V86.4717C265.874 85.3115 265.76 84.2217 265.531 83.2021C265.32 82.165 264.978 81.251 264.503 80.46C264.046 79.6514 263.439 79.0186 262.684 78.5615C261.928 78.1045 261.014 77.876 259.941 77.876C258.869 77.876 257.955 78.1045 257.199 78.5615C256.461 79.0186 255.854 79.6514 255.38 80.46C254.923 81.251 254.589 82.165 254.378 83.2021C254.167 84.2217 254.062 85.3115 254.062 86.4717ZM296.01 94.7773V60.5H303.656V101H296.774L296.01 94.7773ZM277.975 87.0781V86.5244C277.975 84.3447 278.221 82.3672 278.713 80.5918C279.205 78.7988 279.926 77.2607 280.875 75.9775C281.824 74.6943 282.993 73.7012 284.382 72.998C285.771 72.2949 287.353 71.9434 289.128 71.9434C290.798 71.9434 292.257 72.2949 293.505 72.998C294.771 73.7012 295.843 74.7031 296.722 76.0039C297.618 77.2871 298.339 78.8076 298.884 80.5654C299.429 82.3057 299.824 84.2129 300.07 86.2871V87.5C299.824 89.4863 299.429 91.332 298.884 93.0371C298.339 94.7422 297.618 96.2363 296.722 97.5195C295.843 98.7852 294.771 99.7695 293.505 100.473C292.239 101.176 290.763 101.527 289.075 101.527C287.3 101.527 285.718 101.167 284.329 100.446C282.958 99.7256 281.798 98.7148 280.849 97.4141C279.917 96.1133 279.205 94.584 278.713 92.8262C278.221 91.0684 277.975 89.1523 277.975 87.0781ZM285.568 86.5244V87.0781C285.568 88.2559 285.656 89.3545 285.832 90.374C286.025 91.3936 286.333 92.2988 286.755 93.0898C287.194 93.8633 287.757 94.4697 288.442 94.9092C289.146 95.3311 289.998 95.542 291 95.542C292.301 95.542 293.373 95.252 294.217 94.6719C295.061 94.0742 295.702 93.2568 296.142 92.2197C296.599 91.1826 296.862 89.9873 296.933 88.6338V85.1797C296.88 84.0723 296.722 83.0791 296.458 82.2002C296.212 81.3037 295.843 80.5391 295.351 79.9062C294.876 79.2734 294.278 78.7812 293.558 78.4297C292.854 78.0781 292.02 77.9023 291.053 77.9023C290.068 77.9023 289.225 78.1309 288.521 78.5879C287.818 79.0273 287.247 79.6338 286.808 80.4072C286.386 81.1807 286.069 82.0947 285.858 83.1494C285.665 84.1865 285.568 85.3115 285.568 86.5244ZM327.464 94.1709V72.4707H335.058V101H327.912L327.464 94.1709ZM328.308 88.3174L330.549 88.2646C330.549 90.1631 330.329 91.9297 329.89 93.5645C329.45 95.1816 328.791 96.5879 327.912 97.7832C327.033 98.9609 325.926 99.8838 324.59 100.552C323.254 101.202 321.681 101.527 319.87 101.527C318.481 101.527 317.198 101.334 316.021 100.947C314.86 100.543 313.858 99.9189 313.015 99.0752C312.188 98.2139 311.538 97.1152 311.063 95.7793C310.606 94.4258 310.378 92.7998 310.378 90.9014V72.4707H317.972V90.9541C317.972 91.7979 318.068 92.5098 318.262 93.0898C318.473 93.6699 318.763 94.1445 319.132 94.5137C319.501 94.8828 319.932 95.1465 320.424 95.3047C320.934 95.4629 321.496 95.542 322.111 95.542C323.676 95.542 324.906 95.2256 325.803 94.5928C326.717 93.96 327.358 93.0986 327.728 92.0088C328.114 90.9014 328.308 89.6709 328.308 88.3174ZM353.645 95.5947C354.576 95.5947 355.402 95.4189 356.123 95.0674C356.844 94.6982 357.406 94.1885 357.811 93.5381C358.232 92.8701 358.452 92.0879 358.47 91.1914H365.615C365.598 93.1953 365.062 94.9795 364.007 96.5439C362.952 98.0908 361.537 99.3125 359.762 100.209C357.986 101.088 356 101.527 353.803 101.527C351.588 101.527 349.654 101.158 348.002 100.42C346.367 99.6816 345.005 98.6621 343.915 97.3613C342.825 96.043 342.008 94.5137 341.463 92.7734C340.918 91.0156 340.646 89.1348 340.646 87.1309V86.3662C340.646 84.3447 340.918 82.4639 341.463 80.7236C342.008 78.9658 342.825 77.4365 343.915 76.1357C345.005 74.8174 346.367 73.7891 348.002 73.0508C349.637 72.3125 351.553 71.9434 353.75 71.9434C356.088 71.9434 358.136 72.3916 359.894 73.2881C361.669 74.1846 363.058 75.4678 364.06 77.1377C365.079 78.79 365.598 80.75 365.615 83.0176H358.47C358.452 82.0684 358.25 81.207 357.863 80.4336C357.494 79.6602 356.949 79.0449 356.229 78.5879C355.525 78.1133 354.655 77.876 353.618 77.876C352.511 77.876 351.605 78.1133 350.902 78.5879C350.199 79.0449 349.654 79.6777 349.268 80.4863C348.881 81.2773 348.608 82.1826 348.45 83.2021C348.31 84.2041 348.239 85.2588 348.239 86.3662V87.1309C348.239 88.2383 348.31 89.3018 348.45 90.3213C348.591 91.3408 348.854 92.2461 349.241 93.0371C349.646 93.8281 350.199 94.4521 350.902 94.9092C351.605 95.3662 352.52 95.5947 353.645 95.5947ZM384.993 72.4707V77.8496H368.382V72.4707H384.993ZM372.495 65.4307H380.089V92.4043C380.089 93.2305 380.194 93.8633 380.405 94.3027C380.634 94.7422 380.968 95.0498 381.407 95.2256C381.847 95.3838 382.4 95.4629 383.068 95.4629C383.543 95.4629 383.965 95.4453 384.334 95.4102C384.721 95.3574 385.046 95.3047 385.31 95.252L385.336 100.842C384.686 101.053 383.982 101.22 383.227 101.343C382.471 101.466 381.636 101.527 380.722 101.527C379.052 101.527 377.593 101.255 376.345 100.71C375.114 100.147 374.165 99.251 373.497 98.0205C372.829 96.79 372.495 95.1729 372.495 93.1689V65.4307ZM420.163 94.5664V81.8574C420.163 80.9434 420.014 80.1611 419.715 79.5107C419.416 78.8428 418.95 78.3242 418.317 77.9551C417.702 77.5859 416.902 77.4014 415.918 77.4014C415.074 77.4014 414.345 77.5508 413.729 77.8496C413.114 78.1309 412.64 78.5439 412.306 79.0889C411.972 79.6162 411.805 80.2402 411.805 80.9609H404.211C404.211 79.748 404.492 78.5967 405.055 77.5068C405.617 76.417 406.435 75.459 407.507 74.6328C408.579 73.7891 409.854 73.1299 411.33 72.6553C412.824 72.1807 414.494 71.9434 416.34 71.9434C418.555 71.9434 420.523 72.3125 422.246 73.0508C423.969 73.7891 425.322 74.8965 426.307 76.373C427.309 77.8496 427.81 79.6953 427.81 81.9102V94.1182C427.81 95.6826 427.906 96.9658 428.1 97.9678C428.293 98.9521 428.574 99.8135 428.943 100.552V101H421.271C420.901 100.227 420.62 99.2598 420.427 98.0996C420.251 96.9219 420.163 95.7441 420.163 94.5664ZM421.165 83.624L421.218 87.9219H416.973C415.971 87.9219 415.101 88.0361 414.362 88.2646C413.624 88.4932 413.018 88.8184 412.543 89.2402C412.068 89.6445 411.717 90.1191 411.488 90.6641C411.277 91.209 411.172 91.8066 411.172 92.457C411.172 93.1074 411.321 93.6963 411.62 94.2236C411.919 94.7334 412.35 95.1377 412.912 95.4365C413.475 95.7178 414.134 95.8584 414.89 95.8584C416.032 95.8584 417.025 95.6299 417.869 95.1729C418.713 94.7158 419.363 94.1533 419.82 93.4854C420.295 92.8174 420.541 92.1846 420.559 91.5869L422.562 94.8037C422.281 95.5244 421.895 96.2715 421.402 97.0449C420.928 97.8184 420.321 98.5479 419.583 99.2334C418.845 99.9014 417.957 100.455 416.92 100.895C415.883 101.316 414.652 101.527 413.229 101.527C411.418 101.527 409.774 101.167 408.298 100.446C406.839 99.708 405.679 98.6973 404.817 97.4141C403.974 96.1133 403.552 94.6367 403.552 92.9844C403.552 91.4902 403.833 90.1631 404.396 89.0029C404.958 87.8428 405.784 86.8672 406.874 86.0762C407.981 85.2676 409.361 84.6611 411.014 84.2568C412.666 83.835 414.582 83.624 416.762 83.624H421.165ZM448.638 72.4707V77.8496H432.026V72.4707H448.638ZM436.14 65.4307H443.733V92.4043C443.733 93.2305 443.839 93.8633 444.05 94.3027C444.278 94.7422 444.612 95.0498 445.052 95.2256C445.491 95.3838 446.045 95.4629 446.713 95.4629C447.188 95.4629 447.609 95.4453 447.979 95.4102C448.365 95.3574 448.69 95.3047 448.954 95.252L448.98 100.842C448.33 101.053 447.627 101.22 446.871 101.343C446.115 101.466 445.28 101.527 444.366 101.527C442.696 101.527 441.237 101.255 439.989 100.71C438.759 100.147 437.81 99.251 437.142 98.0205C436.474 96.79 436.14 95.1729 436.14 93.1689V65.4307ZM483.808 94.5664V81.8574C483.808 80.9434 483.658 80.1611 483.359 79.5107C483.061 78.8428 482.595 78.3242 481.962 77.9551C481.347 77.5859 480.547 77.4014 479.562 77.4014C478.719 77.4014 477.989 77.5508 477.374 77.8496C476.759 78.1309 476.284 78.5439 475.95 79.0889C475.616 79.6162 475.449 80.2402 475.449 80.9609H467.855C467.855 79.748 468.137 78.5967 468.699 77.5068C469.262 76.417 470.079 75.459 471.151 74.6328C472.224 73.7891 473.498 73.1299 474.975 72.6553C476.469 72.1807 478.139 71.9434 479.984 71.9434C482.199 71.9434 484.168 72.3125 485.891 73.0508C487.613 73.7891 488.967 74.8965 489.951 76.373C490.953 77.8496 491.454 79.6953 491.454 81.9102V94.1182C491.454 95.6826 491.551 96.9658 491.744 97.9678C491.938 98.9521 492.219 99.8135 492.588 100.552V101H484.915C484.546 100.227 484.265 99.2598 484.071 98.0996C483.896 96.9219 483.808 95.7441 483.808 94.5664ZM484.81 83.624L484.862 87.9219H480.617C479.615 87.9219 478.745 88.0361 478.007 88.2646C477.269 88.4932 476.662 88.8184 476.188 89.2402C475.713 89.6445 475.361 90.1191 475.133 90.6641C474.922 91.209 474.816 91.8066 474.816 92.457C474.816 93.1074 474.966 93.6963 475.265 94.2236C475.563 94.7334 475.994 95.1377 476.557 95.4365C477.119 95.7178 477.778 95.8584 478.534 95.8584C479.677 95.8584 480.67 95.6299 481.514 95.1729C482.357 94.7158 483.008 94.1533 483.465 93.4854C483.939 92.8174 484.186 92.1846 484.203 91.5869L486.207 94.8037C485.926 95.5244 485.539 96.2715 485.047 97.0449C484.572 97.8184 483.966 98.5479 483.228 99.2334C482.489 99.9014 481.602 100.455 480.564 100.895C479.527 101.316 478.297 101.527 476.873 101.527C475.062 101.527 473.419 101.167 471.942 100.446C470.483 99.708 469.323 98.6973 468.462 97.4141C467.618 96.1133 467.196 94.6367 467.196 92.9844C467.196 91.4902 467.478 90.1631 468.04 89.0029C468.603 87.8428 469.429 86.8672 470.519 86.0762C471.626 85.2676 473.006 84.6611 474.658 84.2568C476.311 83.835 478.227 83.624 480.406 83.624H484.81ZM526.729 72.4707V77.8496H510.118V72.4707H526.729ZM514.231 65.4307H521.825V92.4043C521.825 93.2305 521.931 93.8633 522.142 94.3027C522.37 94.7422 522.704 95.0498 523.144 95.2256C523.583 95.3838 524.137 95.4629 524.805 95.4629C525.279 95.4629 525.701 95.4453 526.07 95.4102C526.457 95.3574 526.782 95.3047 527.046 95.252L527.072 100.842C526.422 101.053 525.719 101.22 524.963 101.343C524.207 101.466 523.372 101.527 522.458 101.527C520.788 101.527 519.329 101.255 518.081 100.71C516.851 100.147 515.901 99.251 515.233 98.0205C514.565 96.79 514.231 95.1729 514.231 93.1689V65.4307ZM540.069 72.4707V101H532.449V72.4707H540.069ZM531.975 65.0352C531.975 63.9277 532.361 63.0137 533.135 62.293C533.908 61.5723 534.945 61.2119 536.246 61.2119C537.529 61.2119 538.558 61.5723 539.331 62.293C540.122 63.0137 540.518 63.9277 540.518 65.0352C540.518 66.1426 540.122 67.0566 539.331 67.7773C538.558 68.498 537.529 68.8584 536.246 68.8584C534.945 68.8584 533.908 68.498 533.135 67.7773C532.361 67.0566 531.975 66.1426 531.975 65.0352ZM554.938 78.377V101H547.318V72.4707H554.464L554.938 78.377ZM553.884 85.7334H551.774C551.774 83.7471 552.012 81.9189 552.486 80.249C552.979 78.5615 553.69 77.1025 554.622 75.8721C555.571 74.624 556.74 73.6572 558.129 72.9717C559.518 72.2861 561.126 71.9434 562.954 71.9434C564.22 71.9434 565.38 72.1367 566.435 72.5234C567.489 72.8926 568.395 73.4814 569.15 74.29C569.924 75.0811 570.521 76.1182 570.943 77.4014C571.365 78.667 571.576 80.1875 571.576 81.9629V101H563.982V82.8066C563.982 81.5059 563.807 80.5039 563.455 79.8008C563.104 79.0977 562.603 78.6055 561.952 78.3242C561.319 78.043 560.555 77.9023 559.658 77.9023C558.674 77.9023 557.812 78.1045 557.074 78.5088C556.354 78.9131 555.756 79.4756 555.281 80.1963C554.807 80.8994 554.455 81.7256 554.227 82.6748C553.998 83.624 553.884 84.6436 553.884 85.7334ZM570.864 84.8633L568.148 85.2061C568.148 83.3428 568.377 81.6113 568.834 80.0117C569.309 78.4121 570.003 77.0059 570.917 75.793C571.849 74.5801 573 73.6396 574.371 72.9717C575.742 72.2861 577.324 71.9434 579.117 71.9434C580.488 71.9434 581.736 72.1455 582.861 72.5498C583.986 72.9365 584.944 73.5605 585.735 74.4219C586.544 75.2656 587.159 76.373 587.581 77.7441C588.021 79.1152 588.24 80.7939 588.24 82.7803V101H580.62V82.7803C580.62 81.4619 580.444 80.46 580.093 79.7744C579.759 79.0713 579.267 78.5879 578.616 78.3242C577.983 78.043 577.228 77.9023 576.349 77.9023C575.435 77.9023 574.635 78.0869 573.949 78.4561C573.264 78.8076 572.692 79.2998 572.235 79.9326C571.778 80.5654 571.436 81.3037 571.207 82.1475C570.979 82.9736 570.864 83.8789 570.864 84.8633ZM608.251 101.527C606.036 101.527 604.05 101.176 602.292 100.473C600.534 99.752 599.04 98.7588 597.81 97.4932C596.597 96.2275 595.665 94.7598 595.015 93.0898C594.364 91.4023 594.039 89.6094 594.039 87.7109V86.6562C594.039 84.4941 594.347 82.5166 594.962 80.7236C595.577 78.9307 596.456 77.375 597.599 76.0566C598.759 74.7383 600.165 73.7275 601.817 73.0244C603.47 72.3037 605.333 71.9434 607.407 71.9434C609.429 71.9434 611.222 72.2773 612.786 72.9453C614.351 73.6133 615.66 74.5625 616.715 75.793C617.787 77.0234 618.596 78.5 619.141 80.2227C619.686 81.9277 619.958 83.8262 619.958 85.918V89.082H597.282V84.0195H612.496V83.4395C612.496 82.3848 612.303 81.4443 611.916 80.6182C611.547 79.7744 610.984 79.1064 610.229 78.6143C609.473 78.1221 608.506 77.876 607.328 77.876C606.326 77.876 605.465 78.0957 604.744 78.5352C604.023 78.9746 603.435 79.5898 602.978 80.3809C602.538 81.1719 602.204 82.1035 601.976 83.1758C601.765 84.2305 601.659 85.3906 601.659 86.6562V87.7109C601.659 88.8535 601.817 89.9082 602.134 90.875C602.468 91.8418 602.934 92.6768 603.531 93.3799C604.146 94.083 604.885 94.6279 605.746 95.0146C606.625 95.4014 607.618 95.5947 608.726 95.5947C610.097 95.5947 611.371 95.3311 612.549 94.8037C613.744 94.2588 614.772 93.4414 615.634 92.3516L619.325 96.3594C618.728 97.2207 617.91 98.0469 616.873 98.8379C615.854 99.6289 614.623 100.279 613.182 100.789C611.74 101.281 610.097 101.527 608.251 101.527ZM625.651 97.335C625.651 96.21 626.038 95.2695 626.812 94.5137C627.603 93.7578 628.648 93.3799 629.949 93.3799C631.25 93.3799 632.287 93.7578 633.061 94.5137C633.852 95.2695 634.247 96.21 634.247 97.335C634.247 98.46 633.852 99.4004 633.061 100.156C632.287 100.912 631.25 101.29 629.949 101.29C628.648 101.29 627.603 100.912 626.812 100.156C626.038 99.4004 625.651 98.46 625.651 97.335Z" fill="black"/>
</svg>
